<?xml version="1.0" encoding="utf-8"?>
<!-- Generator: Adobe Illustrator 15.1.0, SVG Export Plug-In . SVG Version: 6.00 Build 0)  -->
<!DOCTYPE svg PUBLIC "-//W3C//DTD SVG 1.1//EN" "http://www.w3.org/Graphics/SVG/1.1/DTD/svg11.dtd">
<svg version="1.1" id="Layer_1" xmlns="http://www.w3.org/2000/svg" xmlns:xlink="http://www.w3.org/1999/xlink" x="0px" y="0px"
	 width="155.91px" height="127.56px" viewBox="0 0 155.91 127.56" enable-background="new 0 0 155.91 127.56" xml:space="preserve">
<g>
	<polygon fill="#F0D0F0" stroke="#F0D0F0" stroke-miterlimit="10" points="96.08,117.292 66.172,117.292 72.791,84.481 
		89.951,84.481 	"/>
	<g>
		<path fill="#F0D0F0" stroke="#F0D0F0" stroke-miterlimit="10" d="M150.689,82.17H6.22c0-5.84,0.69-11.51,2-16.95
			c1.12-4.67,2.7-9.16,4.68-13.43c5.35-11.54,13.66-21.42,23.96-28.68c3.93-2.78,8.16-5.17,12.62-7.13
			C58.35,12.09,68.15,9.93,78.46,9.93c11.88,0,23.09,2.87,32.979,7.96c4.291,2.2,8.33,4.82,12.061,7.82
			c8.52,6.79,15.46,15.48,20.189,25.42v0.01c2.051,4.28,3.681,8.78,4.84,13.48C149.939,70.24,150.689,76.12,150.689,82.17z"/>
		<polyline fill="none" stroke="#F0D0F0" stroke-miterlimit="10" points="6.22,82.17 25.48,82.17 40.19,82.17 119.3,82.17 
			134.01,82.17 150.689,82.17 		"/>
	</g>
	<path fill="#FFFFFF" stroke="#FFFFFF" stroke-miterlimit="10" d="M16.14,57.9c0,4.06-3.29,7.35-7.35,7.35
		c-0.19,0-0.38-0.01-0.57-0.03c1.12-4.67,2.7-9.16,4.68-13.43C14.85,53.12,16.14,55.36,16.14,57.9z"/>
	<path fill="#FFFFFF" stroke="#FFFFFF" stroke-miterlimit="10" d="M49.94,18.51c0,4.061-3.29,7.351-7.35,7.351
		c-2.32,0-4.39-1.07-5.73-2.75c3.93-2.78,8.16-5.17,12.62-7.13C49.78,16.77,49.94,17.62,49.94,18.51z"/>
	<path fill="#FFFFFF" stroke="#FFFFFF" stroke-miterlimit="10" d="M123.5,25.71c-1.33,1.33-3.17,2.15-5.2,2.15
		c-4.06,0-7.35-3.29-7.35-7.351c0-0.92,0.17-1.81,0.489-2.62C115.73,20.09,119.77,22.71,123.5,25.71z"/>
	<circle fill="#FFFFFF" stroke="#FFFFFF" stroke-miterlimit="10" cx="81.125" cy="28.985" r="7.356"/>
	<path fill="#FFFFFF" stroke="#FFFFFF" stroke-miterlimit="10" d="M40.19,82.17H25.48c0-4.07,3.3-7.36,7.36-7.36
		S40.19,78.1,40.19,82.17z"/>
	<path fill="#FFFFFF" stroke="#FFFFFF" stroke-miterlimit="10" d="M134.01,82.17H119.3c0-4.07,3.29-7.36,7.36-7.36
		C130.721,74.81,134.01,78.1,134.01,82.17z"/>
	<path fill="#FFFFFF" stroke="#FFFFFF" stroke-miterlimit="10" d="M148.529,64.62c-0.27,0.03-0.549,0.05-0.84,0.05
		c-4.069,0-7.359-3.3-7.359-7.36c0-2.59,1.34-4.869,3.359-6.17C145.74,55.42,147.37,59.92,148.529,64.62z"/>
	<g>
		<rect x="35.8" y="41.526" fill="none" width="90.652" height="35.726"/>
		<path fill="#FFFFFF" d="M55.927,41.963c0-0.258-0.047,0.129-0.141,1.16c-0.129,1.301-0.229,2.965-0.299,4.992
			c-0.094,2.297-0.141,4.91-0.141,7.84c0,4.84,0.135,8.285,0.404,10.336c0.023,0.223,0.035,0.363,0.035,0.422
			c0,0.129-0.088,0.205-0.264,0.229c-0.422,0.059-1.975,0.088-4.658,0.088c-0.633,0-0.996-0.123-1.09-0.369
			c-0.023-0.445-0.047-0.891-0.07-1.336c-0.012-0.094-0.059-0.188-0.141-0.281c-0.07,0.035-0.158,0.105-0.264,0.211
			c-1.266,1.242-2.848,1.863-4.746,1.863c-2.473,0-4.453-0.867-5.941-2.602c-1.418-1.652-2.127-3.738-2.127-6.258
			c0-2.555,0.697-4.658,2.092-6.311c1.477-1.758,3.469-2.637,5.977-2.637c1.77,0,3.146,0.563,4.131,1.688
			c0.164,0.188,0.281,0.281,0.352,0.281c0.105,0,0.158-0.152,0.158-0.457c0-0.902-0.023-2.25-0.07-4.043s-0.07-3.135-0.07-4.025
			c0-0.34,0.094-0.533,0.281-0.58c0.75-0.035,1.781-0.105,3.094-0.211c2.344-0.293,3.381-0.439,3.111-0.439
			C55.798,41.523,55.927,41.67,55.927,41.963z M49.3,58.117c0-0.926-0.322-1.737-0.967-2.435s-1.424-1.046-2.338-1.046
			c-0.961,0-1.726,0.349-2.294,1.046s-0.853,1.532-0.853,2.505c0,0.949,0.287,1.752,0.861,2.408
			c0.586,0.703,1.348,1.055,2.285,1.055s1.723-0.352,2.355-1.055S49.3,59.066,49.3,58.117z"/>
		<path fill="#FFFFFF" d="M76.195,58.117c0,0.902,0.053,2.244,0.158,4.025s0.158,3.117,0.158,4.008c0,0.469-0.205,0.721-0.615,0.756
			c-1.453,0.105-3.117,0.158-4.992,0.158c-0.223,0-0.372-0.337-0.448-1.011s-0.167-1.017-0.272-1.028
			c-0.094,0.047-0.217,0.146-0.369,0.299c-1.313,1.324-2.719,1.986-4.219,1.986c-2.285,0-4.178-0.902-5.678-2.707
			c-1.418-1.688-2.127-3.703-2.127-6.047c0-2.707,0.732-4.887,2.197-6.539c1.523-1.711,3.609-2.566,6.258-2.566
			c1.84,0,3.293,0.645,4.359,1.934c0.047,0.059,0.088,0.088,0.123,0.088c0.105,0,0.226-0.284,0.36-0.853s0.296-0.853,0.483-0.853
			c0.434,0,1.26,0.123,2.479,0.369c1.16,0.234,1.992,0.434,2.496,0.598c0.176,0.07,0.264,0.164,0.264,0.281
			c0,0.047-0.018,0.17-0.053,0.369C76.382,53.506,76.195,55.75,76.195,58.117z M70.535,58.223c0-0.996-0.313-1.819-0.94-2.47
			s-1.444-0.976-2.452-0.976s-1.822,0.322-2.443,0.967s-0.932,1.471-0.932,2.479c0,0.949,0.328,1.764,0.984,2.443
			s1.453,1.02,2.391,1.02c0.996,0,1.811-0.325,2.443-0.976S70.535,59.23,70.535,58.223z"/>
		<path fill="#FFFFFF" d="M91.348,55.955c0,0.457-0.252,0.686-0.756,0.686c-0.223,0-0.549-0.015-0.977-0.044
			s-0.746-0.044-0.957-0.044c-0.973,0-1.635,0.152-1.986,0.457s-0.527,0.92-0.527,1.846c0,0.504,0.008,1.269,0.025,2.294
			s0.027,1.79,0.027,2.294c0,0.34,0.023,0.847,0.07,1.521s0.07,1.175,0.07,1.503c0,0.281-0.193,0.439-0.58,0.475
			c-0.563,0.047-1.424,0.07-2.584,0.07c-1.113,0-2.004-0.035-2.672-0.105c-0.387-0.047-0.58-0.24-0.58-0.58
			c0-0.938,0.006-2.341,0.018-4.21s0.018-3.272,0.018-4.21c0-2.754-0.252-5.021-0.756-6.803c-0.023-0.105-0.035-0.193-0.035-0.264
			c0-0.176,0.088-0.293,0.264-0.352c0.645-0.07,1.588-0.199,2.83-0.387c1.852-0.363,2.807-0.545,2.865-0.545
			c0.211,0,0.346,0.369,0.404,1.107s0.164,1.107,0.316,1.107c-0.164,0,0.316-0.308,1.441-0.923s2.209-0.923,3.252-0.923
			c0.656,0,0.984,0.141,0.984,0.422c0,0.34-0.035,0.82-0.105,1.441c-0.07,0.668-0.111,1.148-0.123,1.441
			c0,0.34,0.006,0.791,0.018,1.354C91.336,55.275,91.348,55.732,91.348,55.955z"/>
		<path fill="#FFFFFF" d="M110.877,66.396c0,0.316-0.164,0.498-0.492,0.545s-1.184,0.07-2.566,0.07
			c-1.477,0-2.391-0.035-2.742-0.105s-0.527-0.311-0.527-0.721c0-0.551,0.018-1.383,0.053-2.496s0.053-1.951,0.053-2.514
			c0-0.434-0.012-1.081-0.035-1.942s-0.035-1.509-0.035-1.942c0-1.605-0.697-2.408-2.092-2.408c-0.457,0-0.99,0.199-1.6,0.598
			c-0.656,0.445-0.984,0.885-0.984,1.318v9.492c0,0.387-0.182,0.604-0.545,0.65c-0.41,0.047-1.248,0.07-2.514,0.07
			c-1.371,0-2.262-0.035-2.672-0.105c-0.363-0.059-0.545-0.252-0.545-0.58c0-0.914,0.006-2.291,0.018-4.131s0.018-3.223,0.018-4.148
			c0-2.918-0.229-5.209-0.686-6.873c-0.023-0.105-0.035-0.193-0.035-0.264c0-0.188,0.088-0.316,0.264-0.387
			c0.738-0.082,1.723-0.211,2.953-0.387c1.863-0.363,2.912-0.545,3.146-0.545c0.129,0,0.229,0.396,0.299,1.187
			s0.17,1.187,0.299,1.187c-0.129,0,0.5-0.407,1.889-1.222s2.605-1.222,3.648-1.222c1.488,0,2.73,0.352,3.727,1.055
			c1.113,0.809,1.67,1.934,1.67,3.375v5.607c0,0.762,0.006,1.901,0.018,3.419S110.877,65.635,110.877,66.396z"/>
		<path fill="#FFFFFF" d="M120.844,46.498c0,2.133-0.193,4.137-0.58,6.012c-0.469,1.922-0.932,3.838-1.389,5.748
			c-0.105,0.434-0.574,0.65-1.406,0.65c-0.949,0-1.477-0.188-1.582-0.563c-1.102-3.762-1.652-5.9-1.652-6.416
			c0-0.48,0.023-1.195,0.07-2.145s0.07-1.664,0.07-2.145c0-0.527-0.018-1.318-0.053-2.373s-0.053-1.846-0.053-2.373
			c0-0.434,0.105-0.65,0.316-0.65c0.328,0,0.82,0.023,1.477,0.07s1.148,0.07,1.477,0.07s0.82-0.023,1.477-0.07
			s1.148-0.07,1.477-0.07C120.727,42.244,120.844,43.662,120.844,46.498z M120.844,63.918c0,0.984-0.305,1.802-0.914,2.452
			s-1.406,0.976-2.391,0.976c-0.996,0-1.797-0.322-2.4-0.967s-0.904-1.465-0.904-2.461c0-0.984,0.305-1.793,0.914-2.426
			s1.406-0.949,2.391-0.949c0.973,0,1.766,0.316,2.381,0.949S120.844,62.934,120.844,63.918z"/>
	</g>
</g>
</svg>
